Coordinates
version=1
nRows=32
nColumns=38
inDegrees=no

Units are S.I. units (second, meters, Newtons, ...)
If the header above contains a line with 'inDegrees', this indicates whether rotational values are in degrees (yes) or radians (no).

endheader
time	pelvis_tilt	pelvis_list	pelvis_rotation	pelvis_tx	pelvis_ty	pelvis_tz	hip_flexion_r	hip_adduction_r	hip_rotation_r	knee_angle_r	ankle_angle_r	subtalar_angle_r	mtp_angle_r	hip_flexion_l	hip_adduction_l	hip_rotation_l	knee_angle_l	ankle_angle_l	subtalar_angle_l	mtp_angle_l	lumbar_extension	lumbar_bending	lumbar_rotation	arm_flex_r	arm_add_r	arm_rot_r	elbow_flex_r	pro_sup_r	wrist_flex_r	wrist_dev_r	arm_flex_l	arm_add_l	arm_rot_l	elbow_flex_l	pro_sup_l	wrist_flex_l	wrist_dev_l
5	0.87695	1.45072	0.593448	0.745884	1.23172	0.965368	0.190067	0.115991	-0.118193	0.415478	0.186718	0	0	0.414217	-0.177471	-0.206008	0.522838	0.0844964	0	0	-0.106446	0.11364	0.13294	0.370635	-0.225851	0.213435	1.631	1.5708	0	0	0.510339	-0.30764	0.242374	1.32181	1.5708	0	0
5.01	0.869533	1.45044	0.598339	0.745753	1.23755	0.964835	0.186073	0.114863	-0.11617	0.419346	0.192787	0	0	0.416648	-0.177598	-0.214005	0.486923	0.0744131	0	0	-0.106048	0.113319	0.13533	0.371632	-0.22265	0.210497	1.63147	1.5708	0	0	0.51352	-0.309542	0.244853	1.32014	1.5708	0	0
5.02	0.859657	1.449	0.605628	0.745518	1.24338	0.964185	0.183141	0.114418	-0.114053	0.423117	0.198468	0	0	0.419998	-0.178361	-0.221187	0.452072	0.064138	0	0	-0.104545	0.11407	0.13688	0.373566	-0.220415	0.21008	1.63107	1.5708	0	0	0.515324	-0.311382	0.246055	1.31922	1.5708	0	0
5.03	0.848545	1.44702	0.613599	0.745252	1.24926	0.963486	0.180813	0.114282	-0.111347	0.427164	0.203908	0	0	0.423312	-0.179476	-0.228245	0.417815	0.0538368	0	0	-0.102446	0.115242	0.138511	0.375657	-0.218607	0.210257	1.63019	1.5708	0	0	0.516462	-0.313058	0.246744	1.31874	1.5708	0	0
5.04	0.834776	1.4446	0.624468	0.744869	1.25517	0.9627	0.179096	0.114127	-0.108965	0.431417	0.209298	0	0	0.426943	-0.18012	-0.234637	0.383373	0.0423425	0	0	-0.0996345	0.116737	0.139583	0.377885	-0.217537	0.210548	1.62938	1.5708	0	0	0.517122	-0.314315	0.247155	1.31866	1.5708	0	0
5.05	0.818165	1.44179	0.638144	0.744395	1.26108	0.961819	0.178035	0.113854	-0.106412	0.435903	0.21495	0	0	0.430678	-0.18023	-0.239568	0.348692	0.0289958	0	0	-0.0961586	0.11832	0.140363	0.38028	-0.21699	0.211255	1.62868	1.5708	0	0	0.51734	-0.315463	0.247723	1.31913	1.5708	0	0
5.06	0.799209	1.43833	0.654024	0.743861	1.26703	0.96086	0.177616	0.113761	-0.10373	0.440284	0.220488	0	0	0.434442	-0.180232	-0.243198	0.313554	0.0152561	0	0	-0.0918473	0.120188	0.140911	0.382573	-0.216901	0.212858	1.62819	1.5708	0	0	0.516719	-0.316482	0.24722	1.32028	1.5708	0	0
5.07	0.779508	1.43451	0.670614	0.74327	1.273	0.959875	0.17744	0.113656	-0.101267	0.444352	0.22604	0	0	0.437647	-0.179915	-0.245044	0.277629	0.0025689	0	0	-0.0870647	0.122172	0.141271	0.384574	-0.217365	0.215141	1.62807	1.5708	0	0	0.515168	-0.317163	0.245329	1.32228	1.5708	0	0
5.08	0.759802	1.43036	0.68745	0.742602	1.27902	0.958847	0.177458	0.11345	-0.0995545	0.448291	0.23151	0	0	0.44067	-0.179541	-0.244801	0.242147	-0.00854969	0	0	-0.0818143	0.124316	0.141201	0.386169	-0.218272	0.217772	1.62828	1.5708	0	0	0.51266	-0.317565	0.242607	1.32514	1.5708	0	0
5.09	0.74328	1.42589	0.701286	0.741864	1.28511	0.957792	0.177268	0.113525	-0.0984166	0.452101	0.236653	0	0	0.44325	-0.179477	-0.242631	0.207575	-0.0173543	0	0	-0.0765082	0.126932	0.14091	0.387474	-0.219441	0.220482	1.62866	1.5708	0	0	0.509603	-0.317652	0.239704	1.32835	1.5708	0	0
5.1	0.731571	1.42111	0.710343	0.741086	1.29127	0.956742	0.176495	0.114222	-0.0968848	0.455432	0.241226	0	0	0.44495	-0.179835	-0.239022	0.173343	-0.0244518	0	0	-0.0713976	0.130209	0.140784	0.388471	-0.220884	0.222914	1.62911	1.5708	0	0	0.506387	-0.317281	0.236721	1.3314	1.5708	0	0
5.11	0.723885	1.41612	0.715204	0.740254	1.29752	0.955712	0.175307	0.115398	-0.0951371	0.458408	0.245347	0	0	0.44557	-0.180759	-0.234056	0.139635	-0.0302117	0	0	-0.066434	0.134078	0.14102	0.389371	-0.222597	0.225189	1.62955	1.5708	0	0	0.502995	-0.316301	0.233494	1.33439	1.5708	0	0
5.12	0.719418	1.41123	0.716648	0.73935	1.30384	0.95472	0.173549	0.116751	-0.092675	0.461469	0.249241	0	0	0.444996	-0.182084	-0.228093	0.10674	-0.034194	0	0	-0.0618792	0.138213	0.141766	0.390094	-0.224697	0.227028	1.63008	1.5708	0	0	0.499798	-0.314748	0.230223	1.33731	1.5708	0	0
5.13	0.717122	1.40659	0.715951	0.738375	1.31026	0.953783	0.171221	0.118005	-0.090076	0.464512	0.252824	0	0	0.443311	-0.183583	-0.221092	0.0750131	-0.0359626	0	0	-0.0576688	0.142407	0.14272	0.39056	-0.227083	0.228149	1.63059	1.5708	0	0	0.496964	-0.312782	0.227428	1.34022	1.5708	0	0
5.14	0.71657	1.40225	0.713721	0.737344	1.31678	0.952911	0.16827	0.118982	-0.0877292	0.467291	0.256299	0	0	0.440855	-0.185036	-0.213825	0.0452039	-0.0353878	0	0	-0.0536043	0.146517	0.143636	0.390466	-0.229061	0.227883	1.63137	1.5708	0	0	0.49437	-0.310585	0.225437	1.3429	1.5708	0	0
5.15	0.718675	1.39828	0.708805	0.736258	1.3234	0.95211	0.16438	0.119845	-0.0853324	0.469612	0.259602	0	0	0.437408	-0.186696	-0.205969	0.0175416	-0.0325738	0	0	-0.049908	0.150687	0.14475	0.389945	-0.2309	0.226891	1.63251	1.5708	0	0	0.491705	-0.308256	0.224128	1.34518	1.5708	0	0
5.16	0.721772	1.39473	0.702762	0.735093	1.33011	0.951368	0.159808	0.120349	-0.0829044	0.471625	0.262553	0	0	0.433686	-0.188526	-0.199019	0	-0.0278405	0	0	-0.0464678	0.15469	0.146043	0.389013	-0.233064	0.226137	1.6334	1.5708	0	0	0.488829	-0.305991	0.223359	1.34702	1.5708	0	0
5.17	0.725819	1.39153	0.695647	0.733844	1.33685	0.950682	0.155107	0.120488	-0.0798692	0.474195	0.26523	0	0	0.430916	-0.190627	-0.194891	0	-0.020464	0	0	-0.0433475	0.158565	0.147471	0.387769	-0.235747	0.22552	1.63381	1.5708	0	0	0.485934	-0.303845	0.2232	1.34896	1.5708	0	0
5.18	0.739159	1.39145	0.681352	0.732625	1.34314	0.950194	0.148635	0.12122	-0.0742706	0.479373	0.26609	0	0	0.44128	-0.194303	-0.19278	0	-0.00816431	0	0	-0.0441207	0.160201	0.148331	0.386537	-0.23743	0.22626	1.63405	1.5708	0	0	0.4844	-0.300562	0.225238	1.35172	1.5708	0	0
5.19	0.742993	1.38998	0.674119	0.73121	1.34997	0.949591	0.14406	0.119695	-0.0703821	0.484886	0.268407	0	0	0.441369	-0.195927	-0.191481	0	0.00206896	0	0	-0.0419393	0.162582	0.150047	0.385017	-0.239852	0.224704	1.63404	1.5708	0	0	0.481965	-0.29864	0.225704	1.35438	1.5708	0	0
5.2	0.744945	1.38926	0.668824	0.729703	1.35694	0.949028	0.139578	0.117146	-0.0666398	0.49117	0.270788	0	0	0.439489	-0.19647	-0.190107	0	0.00880502	0	0	-0.039702	0.1641	0.151352	0.383625	-0.242129	0.222841	1.63427	1.5708	0	0	0.479841	-0.297188	0.227035	1.35671	1.5708	0	0
5.21	0.745976	1.38941	0.664574	0.728127	1.36407	0.948522	0.134798	0.113723	-0.0626602	0.497852	0.272955	0	0	0.435596	-0.195988	-0.188223	0	0.00808409	0	0	-0.0376524	0.164837	0.15229	0.382155	-0.244139	0.220558	1.63458	1.5708	0	0	0.477686	-0.296264	0.228983	1.35859	1.5708	0	0
5.22	0.741389	1.38926	0.66423	0.726399	1.37161	0.948026	0.130874	0.107366	-0.0604341	0.504593	0.276761	0	0	0.425614	-0.194182	-0.186568	0	-0.000792159	0	0	-0.0342339	0.165663	0.153788	0.380362	-0.247245	0.216926	1.63434	1.5708	0	0	0.474458	-0.296832	0.229371	1.36002	1.5708	0	0
5.23	0.743748	1.39194	0.659064	0.72471	1.3788	0.947667	0.125334	0.102204	-0.0549559	0.513128	0.278155	0	0	0.425181	-0.1926	-0.186568	0.00560638	-0.00860544	0	0	-0.0339045	0.164199	0.154479	0.378485	-0.249498	0.214861	1.63433	1.5708	0	0	0.472133	-0.296165	0.231967	1.36208	1.5708	0	0
5.24	0.741747	1.39527	0.657595	0.722995	1.38609	0.947277	0.120787	0.0959591	-0.0489489	0.523416	0.279799	0	0	0.425229	-0.190115	-0.190486	0.0258072	-0.0120113	0	0	-0.0330953	0.161599	0.156039	0.375846	-0.251811	0.21181	1.63432	1.5708	0	0	0.469936	-0.295329	0.235574	1.36409	1.5708	0	0
5.25	0.735866	1.39859	0.659052	0.721215	1.39349	0.946834	0.11756	0.08921	-0.0421725	0.535222	0.281171	0	0	0.424879	-0.187086	-0.196454	0.0446962	-0.0111052	0	0	-0.0313974	0.158912	0.157267	0.374305	-0.254977	0.213106	1.63312	1.5708	0	0	0.466092	-0.294456	0.236454	1.36737	1.5708	0	0
5.26	0.736457	1.40242	0.653966	0.719248	1.40096	0.946399	0.113471	0.0825176	-0.0355327	0.547565	0.281673	0	0	0.421999	-0.18363	-0.201672	0.0598865	-0.0119855	0	0	-0.0308931	0.15796	0.15844	0.38819	-0.255766	0.258045	1.65243	1.5708	0	0	0.462218	-0.29294	0.236594	1.36941	1.5708	0	0
5.27	0.718241	1.40581	0.666615	0.717373	1.40856	0.945957	0.113117	0.0743165	-0.0274589	0.561617	0.281431	0	0	0.420849	-0.178764	-0.209864	0.0725398	-0.0199557	0	0	-0.0266904	0.15258	0.163107	0.366842	-0.260018	0.205765	1.63183	1.5708	0	0	0.460399	-0.289739	0.241051	1.37007	1.5708	0	0
5.28	0.703782	1.41005	0.67591	0.715278	1.41603	0.945626	0.112987	0.0656824	-0.0190956	0.57772	0.28008	0	0	0.418484	-0.173458	-0.217957	0.0840655	-0.033841	0	0	-0.0241385	0.14859	0.165472	0.363994	-0.263306	0.204297	1.63002	1.5708	0	0	0.456577	-0.286946	0.242327	1.37084	1.5708	0	0
5.29	0.682429	1.41519	0.692781	0.713081	1.42338	0.945478	0.114593	0.0557673	-0.0101958	0.596147	0.277169	0	0	0.416714	-0.166953	-0.227026	0.0965564	-0.0480322	0	0	-0.021676	0.142938	0.166879	0.361186	-0.265836	0.202827	1.62751	1.5708	0	0	0.452302	-0.284168	0.24274	1.37179	1.5708	0	0
5.3	0.661583	1.42158	0.710814	0.710729	1.43064	0.945651	0.116169	0.0451623	-0.00158459	0.615885	0.271903	0	0	0.414746	-0.159525	-0.235823	0.111507	-0.0557517	0	0	-0.020701	0.136208	0.166099	0.359293	-0.268159	0.203078	1.62409	1.5708	0	0	0.447521	-0.281293	0.241676	1.374	1.5708	0	0
5.31	0.648993	1.429	0.722204	0.70822	1.43779	0.946076	0.116833	0.0347744	0.00642326	0.636773	0.264511	0	0	0.411451	-0.15194	-0.242772	0.127945	-0.0578367	0	0	-0.0221022	0.130516	0.164464	0.371984	-0.26801	0.243781	1.64274	1.5708	0	0	0.443839	-0.277853	0.241165	1.37489	1.5708	0	0
